<svg xmlns="http://www.w3.org/2000/svg" width="106" height="107" viewBox="0 0 106 107" fill="none">
<rect opacity="0.14" x="-0.000488281" y="0.356934" width="106" height="106" rx="30" fill="#FEC31D"/>
<path d="M52.5231 78.1152C49.0004 75.1162 45.7352 71.8284 42.7616 68.2862C38.2991 62.9667 33 55.0444 33 47.4952C32.9981 43.6398 34.1421 39.8704 36.2874 36.6642C38.4327 33.4579 41.4827 30.9589 45.0515 29.4834C48.6204 28.0079 52.5475 27.6223 56.3361 28.3752C60.1246 29.1282 63.6041 30.986 66.3344 33.7134C68.1521 35.5196 69.5929 37.6677 70.5734 40.0333C71.5538 42.399 72.0545 44.9352 72.0463 47.4952C72.0463 55.0444 66.7471 62.9667 62.2847 68.2862C59.3111 71.8284 56.0458 75.1162 52.5231 78.1152ZM52.5231 39.1443C50.3041 39.1443 48.1759 40.0241 46.6067 41.5902C45.0376 43.1563 44.1561 45.2804 44.1561 47.4952C44.1561 49.71 45.0376 51.8341 46.6067 53.4002C48.1759 54.9663 50.3041 55.8461 52.5231 55.8461C54.7422 55.8461 56.8704 54.9663 58.4396 53.4002C60.0087 51.8341 60.8902 49.71 60.8902 47.4952C60.8902 45.2804 60.0087 43.1563 58.4396 41.5902C56.8704 40.0241 54.7422 39.1443 52.5231 39.1443Z" fill="#FEC31D"/>
</svg>